<?xml version="1.0" encoding="UTF-8"?>
<svg width="128px" height="128px" viewBox="0 0 128 128" xmlns="http://www.w3.org/2000/svg">
  <g>
    <rect width="128" height="128" rx="32" fill="#fff"/>
    <path fill="#181717" d="M64 24C39.1 24 19 44.1 19 69c0 19.9 12.9 36.8 30.8 42.8 2.3.4 3.2-1 3.2-2.2v-8.1c-12.5 2.7-15.1-6-15.1-6-2.1-5.3-5.1-6.7-5.1-6.7-4.2-2.9.3-2.8.3-2.8 4.6.3 7 4.7 7 4.7 4.1 7 10.7 5 13.3 3.8.4-3 1.6-5 2.9-6.1-10-1.1-20.5-5-20.5-22.2 0-4.9 1.7-8.9 4.6-12-0.5-1.1-2-5.5.4-11.5 0 0 3.8-1.2 12.5 4.6 3.6-1 7.5-1.5 11.3-1.5s7.7.5 11.3 1.5c8.7-5.8 12.5-4.6 12.5-4.6 2.4 6 0.9 10.4.4 11.5 2.9 3.1 4.6 7.1 4.6 12 0 17.3-10.5 21.1-20.5 22.2 1.7 1.5 3.2 4.4 3.2 8.8v13c0 1.2.9 2.6 3.2 2.2C96.1 105.8 109 88.9 109 69c0-24.9-20.1-45-45-45z"/>
  </g>
</svg> 